<svg width="64" height="36" viewBox="0 0 64 36" fill="none" xmlns="http://www.w3.org/2000/svg">
<g clip-path="url(#clip0_11202_26)">
<path d="M25.839 9.89467C25.5347 6.78139 22.76 4.50705 19.6476 4.81962C16.5467 5.13102 14.2826 7.89314 14.5858 10.9949C14.8891 14.0965 17.6452 16.3677 20.7478 16.073C23.8618 15.7768 26.1434 13.008 25.839 9.89467ZM21.6246 6.1248C21.6937 6.12461 21.7452 6.13864 21.8094 6.1561L21.8233 6.15988C21.8484 6.28589 21.8233 6.34445 21.7574 6.4517C21.642 6.63944 21.5136 6.81919 21.3852 6.99897C21.1586 7.3163 20.9319 7.6337 20.7766 7.99524C20.4399 8.7791 20.5183 9.69342 20.5976 10.6173C20.667 11.4259 20.737 12.2418 20.5299 12.984C20.2806 13.8769 19.655 14.4609 18.8716 14.8965C18.8282 14.9038 18.7803 14.9001 18.7342 14.8965C18.7246 14.8958 18.715 14.8951 18.7056 14.8944C18.6996 14.894 18.6937 14.8937 18.6879 14.8934L18.6803 14.8791C18.6357 14.7942 18.633 14.789 18.6653 14.6924C18.7073 14.5671 18.7907 14.4389 18.8694 14.318C18.8994 14.2719 18.9287 14.2268 18.9548 14.1834C19.2271 13.7297 19.4941 13.2396 19.5776 12.7101C19.6819 12.0489 19.6264 11.3685 19.5708 10.6881C19.5003 9.82472 19.4299 8.961 19.6861 8.13689C20.0008 7.12431 20.7377 6.59614 21.6246 6.1248Z" fill="#0B0803"/>
<path d="M39.1508 26.3191C38.7978 23.297 36.0619 21.133 33.0398 21.485C30.0162 21.8369 27.8506 24.5738 28.2037 27.5975C28.5569 30.6213 31.2948 32.7857 34.3182 32.4317C37.3403 32.0777 39.5038 29.3413 39.1508 26.3191ZM33.0482 22.7518C33.7793 22.6977 34.4632 22.8758 35.053 23.3143C36.0074 24.0239 36.4942 25.1967 36.6555 26.3449C36.8262 27.5566 36.8094 29.2394 36.0199 30.2541C35.5892 30.8072 35.0446 31.032 34.3702 31.1145C33.6517 31.1838 32.9327 30.991 32.3454 30.5724C31.4171 29.9028 30.9407 28.8024 30.7678 27.7C30.5708 26.4441 30.5781 24.6867 31.3917 23.6274C31.8246 23.0638 32.3654 22.8395 33.0482 22.7518Z" fill="#0B0803"/>
<path d="M7.75597 0.275559C8.73651 0.146984 9.84637 0.247829 10.8003 0.488436C11.3805 0.634764 11.9594 0.833772 12.5525 0.917231C12.8936 0.965184 13.2514 0.961348 13.5955 0.967388C13.6512 1.9223 13.8354 4.21051 13.7251 5.0516C13.5494 5.08569 13.4144 5.07613 13.2377 5.05208C13.0567 4.84283 12.9716 4.37448 12.8629 4.10315C12.464 3.10811 11.6754 2.34353 10.6866 1.93795C9.44746 1.42969 7.96795 1.49503 6.74658 2.02262C5.46388 2.57674 4.41878 3.68575 3.90942 4.98474C3.12042 6.99678 3.12593 9.57764 4.01115 11.5582C4.62446 12.9304 5.71551 14.1375 7.14319 14.6732C8.5061 15.1846 9.98723 15.0334 11.2927 14.4352C11.8756 14.1378 12.4146 13.6956 12.7614 13.1351C12.9576 12.818 13.1018 12.2153 13.413 12.0105L13.4996 12.0449C13.834 12.4674 13.9585 13.7885 14.0684 14.3569C12.8101 15.4659 11.2921 16.2012 9.62357 16.4207C7.43994 16.7075 5.16098 16.2668 3.39648 14.9052C1.79028 13.6657 0.814674 11.7182 0.57349 9.72239C0.293176 7.40315 0.805272 5.06253 2.27323 3.21657C3.6259 1.51562 5.61551 0.521155 7.75597 0.275559Z" fill="#0B0803"/>
<path d="M48.7648 5.78424C48.1803 5.6387 47.4728 5.56013 46.8735 5.63445C45.4748 5.77185 44.2789 6.3111 43.3702 7.40782C42.3634 8.63643 41.8854 10.2143 42.0403 11.7951C42.1795 13.1427 42.7993 14.4826 43.8745 15.335C45.0037 16.2311 46.5993 16.4837 48.0006 16.3178C49.2449 16.1707 50.3478 15.6334 51.1194 14.6289C51.4724 14.1699 51.7287 13.6511 51.9309 13.1107C51.9061 13.0873 51.8815 13.063 51.8566 13.0387C51.7374 12.9214 51.6144 12.8004 51.454 12.7517C51.4398 12.7582 51.4276 12.7633 51.4168 12.7679C51.368 12.7884 51.3484 12.7967 51.308 12.8581C50.6425 13.8378 49.8799 14.4863 48.6887 14.709C47.7601 14.8826 46.8372 14.7229 46.0583 14.1763C45.4386 13.7414 44.9496 13.0994 44.6633 12.4009C46.0878 11.5563 47.6361 10.7014 49.2748 10.3657C49.5992 10.2993 49.9299 10.262 50.2596 10.2248C50.6063 10.1857 50.9518 10.1467 51.2875 10.0741C51.5128 10.0254 51.6746 9.97965 51.7513 9.74088C51.943 9.14175 51.6405 8.16289 51.3384 7.64659C50.7864 6.70181 49.8169 6.04602 48.7648 5.78424ZM47.3157 6.73748C47.582 6.73906 47.8672 6.75791 48.1235 6.82871C48.5574 6.94836 48.9503 7.2054 49.1619 7.61177C49.3085 7.89298 49.423 8.34383 49.3079 8.65151C49.2113 8.90982 49.0023 9.08634 48.7711 9.22291C48.4827 9.39289 48.1372 9.50224 47.8045 9.60754C47.6913 9.64335 47.5797 9.67869 47.4723 9.71578C46.8908 9.91663 46.3178 10.1358 45.7637 10.4038C45.637 10.4601 45.4769 10.5613 45.3063 10.6691C44.9859 10.8714 44.6287 11.097 44.3871 11.0931C44.2579 10.985 44.2248 10.8952 44.2112 10.7328C44.1213 9.65532 44.5552 8.42971 45.2521 7.61513C45.7626 7.0189 46.5637 6.79846 47.3157 6.73748Z" fill="#0B0803"/>
<path d="M59.2405 5.68141C58.8266 5.62468 58.4075 5.60887 57.9905 5.63419C56.5713 5.74995 55.3712 6.26762 54.4426 7.37248C53.421 8.596 52.9305 10.1771 53.0801 11.7642C53.2051 13.0787 53.8191 14.423 54.8544 15.2671C55.9689 16.176 57.6318 16.4869 59.0346 16.3278C60.2831 16.1865 61.405 15.5998 62.1844 14.6087C62.5431 14.1487 62.8242 13.6328 63.0158 13.0815C62.9916 13.0605 62.9663 13.0375 62.9401 13.0136C62.8102 12.8951 62.6574 12.7559 62.4948 12.7429C61.8267 13.7491 61.0268 14.4571 59.8146 14.7015C58.9012 14.8858 58.0146 14.7513 57.2305 14.2309C56.5577 13.7842 56.0682 13.1336 55.7194 12.4129C57.2594 11.3652 59.1539 10.5627 60.9848 10.224C61.2119 10.1819 61.4426 10.1641 61.6732 10.1463C61.8641 10.1315 62.0549 10.1168 62.2437 10.0883C62.4896 10.0512 62.7391 9.99499 62.7942 9.714C62.9492 8.92153 62.6366 7.9683 62.1687 7.33115C61.4628 6.36988 60.4055 5.84349 59.2405 5.68141ZM57.8881 6.77598C58.3655 6.73817 58.8303 6.71464 59.2904 6.88297C59.7316 7.04427 60.0872 7.3625 60.2789 7.79377C60.4055 8.07766 60.4606 8.39552 60.3408 8.69133C60.2726 8.8583 60.1476 9.00999 60.0026 9.11608C59.6557 9.3695 58.799 9.66852 58.0538 9.92864C57.6865 10.0568 57.3463 10.1756 57.1075 10.2748C56.7245 10.4455 56.3554 10.6527 55.987 10.8594C55.7826 10.9741 55.5784 11.0887 55.3722 11.1969C55.1994 10.1416 55.3076 9.06603 55.8822 8.14095C56.357 7.37731 57.0261 6.97342 57.8881 6.77598Z" fill="#0B0803"/>
<path d="M22.52 18.342C23.6496 18.3357 26.8228 18.1949 27.6788 18.4208C27.7505 18.519 27.7438 18.5206 27.735 18.643C27.5371 18.9765 27.1148 19.1104 26.8219 19.3494C26.6529 19.487 26.5002 19.6834 26.4492 19.8988C26.2602 20.6961 26.3347 21.6178 26.3341 22.4367L26.3117 25.8948C26.3058 26.7199 26.3315 27.5634 26.2348 28.3828C26.0965 29.5561 25.5786 30.6465 24.6306 31.3771C23.4489 32.2884 21.7993 32.4911 20.355 32.2952C19.09 32.124 17.8559 31.5761 17.0694 30.5378C16.3558 29.596 16.1751 28.4962 16.3264 27.3449C16.3664 27.1417 16.4174 26.9452 16.4903 26.7509C16.7594 26.0334 17.286 25.4436 17.9962 25.139C18.7464 24.8175 19.6923 24.7939 20.446 25.1185C20.8128 25.276 21.0439 25.5476 21.1787 25.9231C21.2612 26.1526 21.2883 26.3491 21.1829 26.5723C20.879 26.8596 20.1952 26.4746 19.7704 26.5938C19.3783 26.7036 19.0786 26.9783 18.8909 27.3344C18.5651 27.9526 18.5573 28.7604 18.7903 29.4106C18.9979 29.9905 19.4683 30.4585 20.0226 30.7148C20.6805 31.0189 21.6055 31.095 22.2929 30.8393C22.8253 30.6412 23.2164 30.2179 23.4311 29.6979C23.6162 29.2499 23.7029 28.7347 23.7465 28.2541C23.8447 27.1711 23.9665 20.6299 23.728 19.9224C23.4763 19.1761 22.6182 19.154 22.4215 18.6997C22.4216 18.5899 22.4241 18.5138 22.477 18.4176C22.4909 18.3919 22.5057 18.3672 22.52 18.342Z" fill="#0B0803"/>
<path d="M45.8574 30.46C46.339 29.2678 46.755 28.0393 47.1988 26.8318C47.5449 25.8916 47.9724 24.9189 48.1846 23.9404C48.2298 23.7319 48.2498 23.5255 48.1915 23.3175C48.0134 22.682 47.1935 22.7329 47.0081 22.2418C47.0339 22.1341 47.0186 22.0874 47.1216 22.0212C47.3112 21.8999 50.6584 21.8873 51.0687 21.9393C51.2052 21.9566 51.3024 21.9871 51.3922 22.0969C51.4016 22.3327 51.3444 22.4404 51.1322 22.5606C50.7919 22.7529 50.3585 22.8511 50.1033 23.1673C49.7015 23.6652 48.1883 27.9258 47.8149 28.8943L46.5669 32.1318C46.2528 32.9449 45.9587 33.8289 45.4913 34.5684C45.2082 35.0159 44.8269 35.4492 44.3647 35.7155C43.6903 36.1031 42.8352 36.1745 42.0899 35.9649C41.5106 35.8016 40.9806 35.4429 40.7033 34.8972C40.4838 34.4654 40.4297 33.8908 40.5909 33.4307C40.7112 33.0878 40.989 32.8036 41.3199 32.656C41.5342 32.561 41.8845 32.478 42.1062 32.5982C42.6335 32.885 42.29 33.832 42.4922 34.3373C42.5605 34.5069 42.6603 34.6267 42.8336 34.6965C43.1157 34.81 43.6052 34.6545 43.8594 34.5311C44.7187 34.1119 45.0795 32.7611 45.3652 31.927C45.0044 31.9338 44.5873 31.978 44.2318 31.916C44.1766 31.9065 44.1073 31.8918 44.0579 31.8629C43.9403 31.7946 43.8646 31.6707 43.8037 31.552C43.5232 31.0052 43.3331 30.3697 43.1141 29.7941L41.7501 26.2047C41.4817 25.4993 41.238 24.764 40.9087 24.0854C40.6629 23.5796 40.3351 23.0628 39.8298 22.7833C39.5793 22.6452 39.2495 22.6468 39.0798 22.3957C39.0504 22.2245 39.0809 22.1205 39.1339 21.9566C40.0384 21.9199 43.6745 21.8253 44.3431 22.0112C44.3799 22.1389 44.3862 22.3154 44.3358 22.4409C44.2559 22.6394 43.872 22.7003 43.6955 22.7712C43.5049 22.8479 43.3399 22.9635 43.2659 23.1636C43.1845 23.3847 43.2932 23.7403 43.3567 23.9646C43.6335 24.9452 44.08 25.9158 44.4476 26.8701C44.9072 28.0624 45.3216 29.2998 45.8574 30.46Z" fill="#0B0803"/>
<path d="M39.4562 1.16609C40.2592 1.12423 41.0213 1.2268 41.7225 1.64709C42.2346 1.95382 42.6684 2.41544 42.7976 3.01263C42.868 3.3368 42.846 3.68009 42.6574 3.96166C42.4526 4.26739 42.0387 4.50569 41.6752 4.55123C41.4567 4.57854 41.2004 4.54876 41.0255 4.40742C40.6195 4.07936 40.8086 3.49589 40.7314 3.04703C40.6894 2.80542 40.5639 2.60211 40.3548 2.47117C40.0386 2.27279 39.5444 2.20724 39.1857 2.30677C38.8721 2.39365 38.6463 2.6154 38.5018 2.90128C38.0422 3.80882 38.2965 4.99499 38.5806 5.91277C39.5439 5.93667 40.5113 5.91724 41.4751 5.91634C41.4778 6.32523 41.4704 6.72729 41.4394 7.13508C40.5087 7.13408 39.5759 7.11995 38.6463 7.15546C38.5869 8.11179 38.61 9.08346 38.6042 10.042C38.5953 11.4766 38.454 13.0603 38.7828 14.4562C38.8327 14.5855 38.8879 14.7073 38.9551 14.829C39.245 15.3566 39.4236 15.3001 39.9394 15.4701C40.1153 15.5278 40.2172 15.5993 40.2939 15.7631C40.2871 15.9018 40.2655 15.9543 40.1836 16.0662C40.1379 16.0951 40.1195 16.1119 40.0596 16.1229C39.8727 16.1586 35.382 16.1392 35.1278 16.0972C34.9534 16.0678 34.8305 16.0294 34.7207 15.8813C34.7932 15.4575 35.2648 15.4874 35.5485 15.2132C35.8736 14.8992 36.0369 14.4781 36.1273 14.0431C36.3237 13.0962 36.2481 12.0234 36.2444 11.0565L36.226 7.1427L34.3893 7.13587C34.352 6.73165 34.3494 6.32361 34.3389 5.91797L36.1677 5.91703C36.0779 5.64344 35.9886 5.35924 35.9492 5.07325C35.8326 4.22811 36.0291 3.3692 36.5485 2.68441C37.2392 1.77414 38.35 1.30911 39.4562 1.16609Z" fill="#0B0803"/>
<path d="M31.8544 1.16718C32.5944 1.10489 33.3051 1.15883 33.969 1.52239C34.4994 1.81295 34.9527 2.29222 35.1155 2.88536C35.2164 3.25291 35.2274 3.71852 35.0194 4.05341C34.8724 4.29055 34.6265 4.42931 34.3566 4.47989C34.1108 4.52601 33.7857 4.52543 33.5803 4.36066C33.1916 4.04873 33.4516 3.44898 33.365 3.03583C33.313 2.78703 33.1123 2.576 32.8943 2.45667C32.5514 2.26858 32.0571 2.24573 31.6862 2.35729C31.3782 2.44989 31.1456 2.65131 31.0043 2.93982C30.5947 3.77603 30.9054 5.05722 31.1864 5.88939C32.1086 5.94407 33.0514 5.90158 33.9768 5.90636C33.9999 6.31897 33.9789 6.72324 33.9543 7.13539C33.0151 7.13328 32.0755 7.13665 31.1363 7.14536C31.0931 8.31972 31.0757 9.49486 31.0842 10.67C31.0809 11.8806 30.9604 13.2406 31.3155 14.4083C31.7056 15.2632 32.5157 15.4073 32.7068 15.864C32.6774 15.9475 32.6895 15.9617 32.607 16.0105C32.3108 16.1875 27.8136 16.1528 27.4115 16.0573C27.3961 16.0026 27.3754 15.9396 27.3734 15.8829C27.3613 15.5263 27.9235 15.3765 28.1395 15.1633C28.4403 14.8665 28.589 14.3165 28.6588 13.9069C28.8157 12.9865 28.7659 11.972 28.765 11.0395L28.757 7.14326L26.9252 7.13549C26.8975 6.72891 26.8978 6.32454 26.8996 5.91718C27.4839 5.92358 28.0682 5.9229 28.6525 5.91518C28.5621 5.61758 28.4667 5.31878 28.4208 5.01048C28.2959 4.17195 28.4782 3.34356 28.9909 2.66192C29.6796 1.74614 30.7517 1.32186 31.8544 1.16718Z" fill="#0B0803"/>
</g>
<defs>
<clipPath id="clip0_11202_26">
<rect width="62.5159" height="35.861" fill="white" transform="translate(0.5 0.21936)"/>
</clipPath>
</defs>
</svg>
