<svg width="147" height="85" viewBox="0 0 147 85" fill="none" xmlns="http://www.w3.org/2000/svg">
<g clip-path="url(#clip0_11202_58)">
<path d="M59.6241 23.3512C58.9139 16.0869 52.4398 10.7801 45.1773 11.5094C37.9419 12.236 32.6591 18.6809 33.3667 25.9183C34.0742 33.1556 40.5052 38.4549 47.7445 37.7673C55.0105 37.0761 60.3343 30.6155 59.6241 23.3512ZM49.7905 14.5548C49.9516 14.5544 50.0719 14.5871 50.2218 14.6279L50.2542 14.6367C50.3127 14.9307 50.2541 15.0673 50.1003 15.3176C49.8311 15.7557 49.5316 16.1751 49.2319 16.5946C48.703 17.335 48.1741 18.0756 47.8117 18.9192C47.026 20.7482 47.2092 22.8816 47.3942 25.0374C47.5561 26.924 47.7195 28.8278 47.2361 30.5596C46.6546 32.643 45.1947 34.0058 43.3668 35.0222C43.2654 35.0391 43.1537 35.0305 43.0462 35.0222C43.0237 35.0205 43.0014 35.0188 42.9794 35.0173C42.9655 35.0164 42.9518 35.0156 42.9381 35.0149L42.9205 34.9815C42.8163 34.7833 42.8101 34.7714 42.8854 34.5459C42.9833 34.2536 43.1781 33.9543 43.3615 33.6724C43.4317 33.5647 43.5001 33.4595 43.5609 33.3583C44.1963 32.2996 44.8192 31.156 45.0141 29.9205C45.2575 28.3777 45.1279 26.7901 44.9983 25.2024C44.8338 23.188 44.6694 21.1726 45.2672 19.2497C46.0016 16.887 47.7209 15.6546 49.7905 14.5548Z" fill="#0B0803"/>
<path d="M90.6853 61.6769C89.8616 54.6252 83.4779 49.576 76.4262 50.3971C69.3711 51.2182 64.3182 57.6044 65.1421 64.6598C65.9661 71.7152 72.3546 76.7656 79.4091 75.9396C86.4608 75.1136 91.5088 68.7285 90.6853 61.6769ZM76.4458 53.3531C78.1518 53.2268 79.7474 53.6423 81.1236 54.6656C83.3505 56.3213 84.4865 59.0579 84.8628 61.7369C85.2611 64.5642 85.2219 68.4908 83.3799 70.8585C82.3749 72.149 81.1041 72.6735 79.5304 72.8659C77.854 73.0277 76.1763 72.5779 74.8061 71.6012C72.64 70.0386 71.5282 67.4712 71.1249 64.8988C70.6653 61.9685 70.6823 57.8679 72.5807 55.396C73.5907 54.081 74.8526 53.5577 76.4458 53.3531Z" fill="#0B0803"/>
<path d="M17.4306 0.907498C19.7185 0.607488 22.3082 0.842795 24.534 1.40421C25.8878 1.74564 27.2386 2.21 28.6226 2.40473C29.4185 2.51662 30.2532 2.50767 31.0563 2.52176C31.1862 4.7499 31.616 10.089 31.3586 12.0516C30.9487 12.1311 30.6336 12.1088 30.2213 12.0527C29.799 11.5645 29.6003 10.4717 29.3467 9.83854C28.4161 7.51678 26.576 5.73277 24.2688 4.78642C21.3774 3.60048 17.9252 3.75293 15.0754 4.98398C12.0824 6.27691 9.64382 8.86462 8.4553 11.8956C6.61431 16.5904 6.62718 22.6124 8.69269 27.2337C10.1237 30.4354 12.6695 33.2519 16.0008 34.502C19.1809 35.6954 22.6369 35.3425 25.6829 33.9467C27.0431 33.2528 28.3008 32.221 29.1099 30.9131C29.5676 30.1733 29.9042 28.7668 30.6303 28.2891L30.8324 28.3693C31.6127 29.3551 31.9031 32.4378 32.1595 33.7639C29.2236 36.3515 25.6816 38.0673 21.7883 38.5795C16.6932 39.2487 11.3756 38.2205 7.25845 35.0434C3.51066 32.1513 1.23424 27.6069 0.671476 22.9501C0.0174111 17.5385 1.2123 12.0771 4.63753 7.76985C7.79376 3.80097 12.4362 1.48056 17.4306 0.907498Z" fill="#0B0803"/>
<path d="M113.118 13.7617C111.754 13.4221 110.103 13.2387 108.705 13.4121C105.441 13.7328 102.651 14.991 100.531 17.55C98.1812 20.4168 97.0661 24.0984 97.4275 27.787C97.7523 30.9315 99.1984 34.0578 101.707 36.0468C104.342 38.1377 108.065 38.7272 111.335 38.3399C114.238 37.9968 116.812 36.743 118.612 34.3992C119.436 33.3282 120.034 32.1176 120.506 30.8567C120.448 30.8021 120.39 30.7455 120.332 30.6886C120.054 30.415 119.767 30.1328 119.393 30.0191C119.36 30.0341 119.331 30.0462 119.306 30.0568C119.192 30.1047 119.146 30.1241 119.052 30.2673C117.499 32.5533 115.72 34.0665 112.94 34.5861C110.774 34.9913 108.62 34.6185 106.803 33.3432C105.357 32.3284 104.216 30.8305 103.548 29.2005C106.871 27.2297 110.484 25.2351 114.308 24.4518C115.065 24.2968 115.837 24.2097 116.606 24.123C117.415 24.0318 118.221 23.9408 119.004 23.7714C119.53 23.6578 119.907 23.5509 120.086 22.9938C120.534 21.5959 119.828 19.3118 119.123 18.1072C117.835 15.9027 115.573 14.3725 113.118 13.7617ZM109.737 15.9859C110.358 15.9896 111.024 16.0336 111.622 16.1988C112.634 16.4779 113.551 17.0777 114.045 18.0259C114.386 18.6821 114.654 19.734 114.385 20.452C114.16 21.0547 113.672 21.4666 113.133 21.7852C112.46 22.1818 111.654 22.437 110.877 22.6827C110.613 22.7662 110.353 22.8487 110.102 22.9353C108.745 23.4039 107.408 23.9152 106.115 24.5406C105.82 24.6721 105.446 24.9081 105.048 25.1596C104.301 25.6317 103.467 26.1582 102.903 26.149C102.602 25.8967 102.525 25.6873 102.493 25.3082C102.283 22.7942 103.295 19.9344 104.922 18.0337C106.113 16.6425 107.982 16.1282 109.737 15.9859Z" fill="#0B0803"/>
<path d="M137.561 13.5212C136.596 13.3889 135.618 13.352 134.645 13.4111C131.333 13.6812 128.533 14.8891 126.366 17.4671C123.982 20.322 122.838 24.0112 123.187 27.7143C123.479 30.7815 124.911 33.9184 127.327 35.8878C129.927 38.0086 133.807 38.7341 137.081 38.3627C139.994 38.0331 142.612 36.6642 144.43 34.3516C145.267 33.2783 145.923 32.0744 146.37 30.7882C146.314 30.7392 146.255 30.6854 146.194 30.6296C145.89 30.3532 145.534 30.0283 145.155 29.998C143.596 32.3459 141.729 33.9979 138.901 34.5681C136.77 34.9982 134.701 34.6844 132.871 33.47C131.301 32.4277 130.159 30.9098 129.345 29.228C132.939 26.7834 137.359 24.9109 141.631 24.1206C142.161 24.0225 142.699 23.9809 143.238 23.9393C143.683 23.9049 144.128 23.8705 144.569 23.8041C145.142 23.7175 145.725 23.5863 145.853 22.9306C146.215 21.0815 145.486 18.8573 144.394 17.3706C142.747 15.1277 140.279 13.8994 137.561 13.5212ZM134.406 16.0753C135.519 15.987 136.604 15.9321 137.678 16.3249C138.707 16.7013 139.537 17.4438 139.984 18.4501C140.279 19.1125 140.408 19.8542 140.129 20.5444C139.969 20.934 139.678 21.2879 139.339 21.5355C138.53 22.1268 136.531 22.8245 134.792 23.4315C133.935 23.7306 133.141 24.0077 132.584 24.2391C131.691 24.6375 130.829 25.1209 129.97 25.6033C129.493 25.871 129.016 26.1383 128.535 26.3907C128.132 23.9283 128.384 21.4187 129.725 19.2602C130.833 17.4784 132.394 16.5359 134.406 16.0753Z" fill="#0B0803"/>
<path d="M51.8798 43.0618C54.5154 43.0471 61.9197 42.7187 63.9169 43.2456C64.0843 43.4748 64.0686 43.4785 64.0481 43.764C63.5863 44.5423 62.6009 44.8548 61.9176 45.4124C61.5231 45.7335 61.167 46.1918 61.0478 46.6943C60.6069 48.5546 60.7808 50.7054 60.7793 52.616L60.727 60.6849C60.7131 62.6102 60.7732 64.5784 60.5476 66.4903C60.2249 69.2281 59.0165 71.7723 56.8044 73.477C54.0471 75.6033 50.1981 76.0764 46.828 75.6192C43.8765 75.2197 40.9968 73.9415 39.1616 71.5186C37.4966 69.3212 37.0749 66.755 37.4281 64.0686C37.5213 63.5943 37.6402 63.136 37.8103 62.6825C38.4384 61.0085 39.6671 59.6322 41.3243 58.9214C43.0746 58.1714 45.2816 58.1162 47.0404 58.8736C47.8962 59.2413 48.4354 59.8748 48.75 60.7511C48.9425 61.2867 49.0057 61.745 48.7598 62.2659C48.0506 62.9362 46.4551 62.0379 45.464 62.3161C44.5491 62.5722 43.8497 63.2132 43.4119 64.0441C42.6515 65.4865 42.6335 67.3714 43.177 68.8886C43.6614 70.2416 44.7592 71.3336 46.0524 71.9316C47.5875 72.6412 49.7459 72.8189 51.3497 72.2221C52.5921 71.76 53.5047 70.7723 54.0057 69.559C54.4375 68.5136 54.6399 67.3114 54.7415 66.19C54.9708 63.663 55.255 48.4002 54.6984 46.7494C54.111 45.0079 52.1088 44.9565 51.65 43.8964C51.6502 43.6403 51.6559 43.4626 51.7794 43.2383C51.8119 43.1782 51.8463 43.1206 51.8798 43.0618Z" fill="#0B0803"/>
<path d="M106.334 71.3382C107.458 68.5563 108.428 65.6897 109.464 62.8723C110.271 60.6786 111.269 58.4089 111.764 56.1257C111.869 55.6392 111.916 55.1575 111.78 54.6722C111.365 53.1893 109.452 53.3082 109.019 52.1623C109.079 51.9111 109.043 51.8021 109.284 51.6476C109.726 51.3645 117.536 51.3351 118.493 51.4564C118.812 51.4969 119.039 51.568 119.248 51.8241C119.27 52.3744 119.137 52.6256 118.642 52.9063C117.848 53.3548 116.837 53.584 116.241 54.3217C115.303 55.4835 111.773 65.425 110.901 67.6849L107.989 75.2391C107.257 77.1362 106.57 79.1988 105.48 80.9243C104.819 81.9685 103.929 82.9795 102.851 83.6009C101.277 84.5053 99.2821 84.672 97.5431 84.183C96.1913 83.8018 94.9547 82.9648 94.3077 81.6915C93.7954 80.6841 93.6692 79.3434 94.0454 78.2698C94.326 77.4695 94.9743 76.8065 95.7464 76.4622C96.2464 76.2403 97.0639 76.0467 97.581 76.3273C98.8115 76.9965 98.01 79.2061 98.4818 80.3851C98.6411 80.7809 98.874 81.0603 99.2784 81.2233C99.9365 81.488 101.079 81.1253 101.672 80.8373C103.677 79.8593 104.519 76.7073 105.185 74.7611C104.344 74.777 103.37 74.88 102.541 74.7354C102.412 74.7133 102.25 74.679 102.135 74.6116C101.861 74.4523 101.684 74.1631 101.542 73.8861C100.888 72.6103 100.444 71.1274 99.9328 69.7842L96.7501 61.409C96.1239 59.7631 95.5553 58.0473 94.7868 56.464C94.2133 55.2838 93.4486 54.0779 92.2696 53.4259C91.685 53.1036 90.9154 53.1072 90.5195 52.5214C90.4509 52.1219 90.522 51.8793 90.6458 51.4969C92.7561 51.4111 101.24 51.1905 102.801 51.6243C102.886 51.9221 102.901 52.3339 102.783 52.6268C102.597 53.0901 101.701 53.2322 101.289 53.3977C100.845 53.5766 100.46 53.8462 100.287 54.3132C100.097 54.8291 100.351 55.6588 100.499 56.1821C101.145 58.4702 102.187 60.7349 103.044 62.9617C104.117 65.7437 105.084 68.631 106.334 71.3382Z" fill="#0B0803"/>
<path d="M91.3974 2.98596C93.2712 2.88828 95.0495 3.12763 96.6855 4.1083C97.8804 4.82401 98.8927 5.90112 99.1942 7.29455C99.3584 8.05095 99.3069 8.85196 98.867 9.50896C98.389 10.2223 97.4233 10.7784 96.5752 10.8846C96.0654 10.9483 95.4674 10.8789 95.0593 10.5491C94.1119 9.7836 94.5531 8.42216 94.373 7.37483C94.2749 6.81108 93.982 6.33668 93.4943 6.03116C92.7565 5.56827 91.6033 5.41533 90.7662 5.64757C90.0346 5.85027 89.5076 6.36768 89.1706 7.03474C88.0982 9.15233 88.6914 11.9201 89.3544 14.0616C91.602 14.1173 93.8595 14.072 96.1083 14.0699C96.1144 15.024 96.0973 15.9621 96.025 16.9136C93.8533 16.9113 91.6768 16.8783 89.5076 16.9612C89.3691 19.1926 89.423 21.4598 89.4096 23.6964C89.3887 27.0437 89.0591 30.7391 89.8262 33.9963C89.9427 34.298 90.0713 34.5822 90.2282 34.866C90.9047 36.0971 91.3214 35.9653 92.5249 36.3619C92.9354 36.4967 93.1732 36.6634 93.3521 37.0458C93.3362 37.3693 93.2859 37.4918 93.0947 37.7529C92.9881 37.8203 92.9452 37.8595 92.8055 37.8852C92.3692 37.9686 81.8909 37.9232 81.2978 37.8252C80.8909 37.7566 80.6041 37.6671 80.348 37.3215C80.5171 36.3325 81.6176 36.4023 82.2794 35.7626C83.038 35.0299 83.4192 34.0473 83.63 33.0324C84.0883 30.8229 83.9118 28.3197 83.9033 26.0635L83.8604 16.9314L79.5747 16.9155C79.4877 15.9723 79.4815 15.0202 79.457 14.0737L83.7243 14.0715C83.5148 13.4331 83.3064 12.77 83.2145 12.1027C82.9424 10.1307 83.4008 8.12657 84.6128 6.52872C86.2244 4.40476 88.8164 3.31967 91.3974 2.98596Z" fill="#0B0803"/>
<path d="M73.6607 2.9883C75.3873 2.84296 77.0455 2.96882 78.5945 3.81713C79.8323 4.49509 80.8899 5.61339 81.2699 6.99738C81.5052 7.855 81.5309 8.94144 81.0456 9.72284C80.7024 10.2762 80.1289 10.5999 79.499 10.718C78.9254 10.8256 78.1668 10.8242 77.6876 10.4398C76.7807 9.71193 77.3874 8.31249 77.1852 7.34849C77.0638 6.76796 76.5957 6.27554 76.0871 5.9971C75.2868 5.55824 74.1336 5.50493 73.268 5.76523C72.5495 5.98129 72.0066 6.45128 71.6769 7.12446C70.7212 9.07563 71.4461 12.0651 72.1018 14.0068C74.2537 14.1344 76.4535 14.0352 78.6129 14.0464C78.6668 15.0092 78.6178 15.9524 78.5602 16.9141C76.369 16.9092 74.1765 16.9171 71.9849 16.9374C71.8841 19.6776 71.8437 22.4196 71.8633 25.1616C71.8558 27.9863 71.5745 31.1597 72.4032 33.8843C73.3134 35.8789 75.2035 36.2152 75.6496 37.2808C75.581 37.4757 75.6091 37.5088 75.4167 37.6227C74.7255 38.0357 64.2319 37.9549 63.2938 37.7318C63.2578 37.6044 63.2095 37.4573 63.2049 37.3249C63.1766 36.4928 64.4884 36.1434 64.9925 35.646C65.6942 34.9534 66.0412 33.67 66.2041 32.7144C66.5702 30.5668 66.4541 28.1996 66.4519 26.0237L66.4334 16.9325L62.1592 16.9144C62.0944 15.9657 62.0952 15.0221 62.0994 14.0716C63.4627 14.0866 64.8262 14.085 66.1895 14.067C65.9784 13.3726 65.756 12.6754 65.6489 11.956C65.3575 9.99944 65.7827 8.06653 66.979 6.47604C68.5861 4.3392 71.0877 3.34922 73.6607 2.9883Z" fill="#0B0803"/>
</g>
<defs>
<clipPath id="clip0_11202_58">
<rect width="145.87" height="83.6758" fill="white" transform="translate(0.5 0.776367)"/>
</clipPath>
</defs>
</svg>
